# Alias OBJ Model File
# Exported from SketchUp, (c) 2000-2012 Trimble Navigation Limited
# File units = inches

mtllib 54c05ae2-133d-4e19-94b7-3bc7bb4f297c.mtl

g Mesh1 Model

usemtl FrontColor
v -0.350422 2.29473 -0.367076
vt -0.350422 2.29473
vn 0 0 1
v -0.350422 0.0439235 -0.367076
vt -0.350422 0.0439235
v 0.149578 0.0439235 -0.367076
vt 0.149578 0.0439235
v 0.149578 2.29473 -0.367076
vt 0.149578 2.29473
f 1/1/1 2/2/1 3/3/1 4/4/1 

v -0.350422 2.29473 -0.429576
vt -0.429576 2.29473
vn -1 0 -0
v -0.350422 -0.0185765 -0.429576
vt -0.429576 -0.0185765
v -0.350422 -0.0185765 -0.367076
vt -0.367076 -0.0185765
vt -0.367076 0.0439235
vt -0.367076 2.29473
f 5/5/2 6/6/2 7/7/2 2/8/2 1/9/2 

v 0.253625 2.35642 -0.428973
vt -0.253196 2.35642
vn 0.000999377 0 -1
v 0.253625 -0.0185765 -0.428973
vt -0.253196 -0.0185765
vt 0.350851 -0.0185765
vt 0.350851 2.29473
v -0.350422 2.35642 -0.429576
vt 0.350851 2.35642
f 8/10/3 9/11/3 6/12/3 5/13/3 10/14/3 

v 0.253625 2.35642 0.421262
vt -0.421262 2.35642
vn 1 0 -0
v 0.253625 -0.0185765 0.421262
vt -0.421262 -0.0185765
vt 0.428973 -0.0185765
vt 0.428973 2.35642
f 11/15/4 12/16/4 9/17/4 8/18/4 

v -0.350422 2.29473 0.421262
v -0.350422 -0.0185765 0.421262
vt -0.350422 -0.0185765
vt 0.253625 -0.0185765
vt 0.253625 2.35642
v -0.350422 2.35642 0.421262
vt -0.350422 2.35642
f 13/1/1 14/19/1 12/20/1 11/21/1 15/22/1 

vt 0.421262 2.29473
v -0.350422 2.29473 0.358762
vt 0.358762 2.29473
v -0.350422 0.0439235 0.358762
vt 0.358762 0.0439235
v -0.350422 -0.0185765 0.358762
vt 0.358762 -0.0185765
vt 0.421262 -0.0185765
f 13/23/2 16/24/2 17/25/2 18/26/2 14/27/2 

vt 0.421262 2.35642
v -0.350422 2.35642 0.358762
vt 0.358762 2.35642
f 15/28/2 19/29/2 16/24/2 13/23/2 

vt -0.350422 0.429576
vn 0 1 -0
v -0.350422 2.35642 -0.367076
vt -0.350422 0.367076
v -0.350631 2.35642 -0.359075
vt -0.350631 0.359075
v -0.333518 2.35642 -0.3468
vt -0.333518 0.3468
v -0.300773 2.35642 -0.319763
vt -0.300773 0.319763
v -0.27082 2.35642 -0.289628
vt -0.27082 0.289628
v -0.243946 2.35642 -0.256684
vt -0.243946 0.256684
v -0.220409 2.35642 -0.22125
vt -0.220409 0.22125
v -0.200441 2.35642 -0.183663
vt -0.200441 0.183663
v -0.184232 2.35642 -0.144289
vt -0.184232 0.144289
v -0.167292 2.35642 -0.0827088
vt -0.167292 0.0827088
v -0.159517 2.35642 -0.0192963
vt -0.159517 0.0192963
v -0.161076 2.35642 0.0445793
vt -0.161076 -0.0445793
v -0.171934 2.35642 0.107533
vt -0.171934 -0.107533
v -0.191856 2.35642 0.168202
vt -0.191856 -0.168202
v -0.220409 2.35642 0.225276
vt -0.220409 -0.225276
v -0.243946 2.35642 0.26071
vt -0.243946 -0.26071
v -0.27082 2.35642 0.293653
vt -0.27082 -0.293653
v -0.316815 2.35642 0.337712
vt -0.316815 -0.337712
vt -0.350422 -0.358762
vt -0.350422 -0.421262
vt 0.253625 -0.421262
vt 0.253625 0.428973
f 10/30/5 20/31/5 21/32/5 22/33/5 23/34/5 24/35/5 25/36/5 26/37/5 27/38/5 28/39/5 29/40/5 30/41/5 31/42/5 32/43/5 33/44/5 34/45/5 35/46/5 36/47/5 37/48/5 19/49/5 15/50/5 11/51/5 8/52/5 

vt -0.367076 2.35642
vt -0.429576 2.35642
f 5/5/2 1/9/2 20/53/2 10/54/2 

vt -0.362483 2.29532
vn -0.999914 -0.00168858 -0.0130197
v -0.350422 2.29473 -0.359075
vt -0.354482 2.29532
vt -0.354479 2.35702
vt -0.362483 2.35702
f 1/55/6 38/56/6 21/57/6 20/58/6 

vt 0.149578 0.367076
vn -6.85251e-32 1 3.05938e-31
vt -0.350422 0.359075
v -0.33331 2.29473 -0.3468
vt -0.33331 0.3468
v -0.300565 2.29473 -0.319763
vt -0.300565 0.319763
v -0.270612 2.29473 -0.289628
vt -0.270612 0.289628
v -0.243738 2.29473 -0.256684
vt -0.243738 0.256684
v -0.220201 2.29473 -0.22125
vt -0.220201 0.22125
v -0.200233 2.29473 -0.183663
vt -0.200233 0.183663
v -0.184024 2.29473 -0.144289
vt -0.184024 0.144289
v -0.167084 2.29473 -0.0827088
vt -0.167084 0.0827088
v -0.159309 2.29473 -0.0192963
vt -0.159309 0.0192963
v -0.160868 2.29473 0.0445793
vt -0.160868 -0.0445793
v -0.171725 2.29473 0.107533
vt -0.171725 -0.107533
v -0.191647 2.29473 0.168202
vt -0.191647 -0.168202
v -0.220201 2.29473 0.225276
vt -0.220201 -0.225276
v -0.243738 2.29473 0.26071
vt -0.243738 -0.26071
v -0.270612 2.29473 0.293653
vt -0.270612 -0.293653
v -0.316815 2.29473 0.337712
v 0.149578 2.29473 0.358762
vt 0.149578 -0.358762
f 4/59/7 1/31/7 38/60/7 39/61/7 40/62/7 41/63/7 42/64/7 43/65/7 44/66/7 45/67/7 46/68/7 47/69/7 48/70/7 49/71/7 50/72/7 51/73/7 52/74/7 53/75/7 54/48/7 16/49/7 55/76/7 

vt 0.472975 2.29455
vn 0.58286 0.00196858 -0.81257
vt 0.494034 2.29455
vt 0.494203 2.35625
vt 0.473144 2.35625
f 39/77/8 38/78/8 21/79/8 22/80/8 

vt 0.435362 2.2946
vn 0.636692 0.00215039 -0.771115
vt 0.477826 2.2946
vt 0.477987 2.3563
vt 0.435523 2.3563
f 40/81/9 39/82/9 22/83/9 23/84/9 

vt 0.396188 2.29469
vn 0.709241 0.00239542 -0.704962
vt 0.438677 2.29469
vt 0.438824 2.35639
vt 0.396335 2.35639
f 41/85/10 40/86/10 23/87/10 24/88/10 

vt 0.352968 2.29479
vn 0.77488 0.00261712 -0.632103
vt 0.395483 2.29479
vt 0.395614 2.35649
vt 0.3531 2.35649
f 42/89/11 41/90/11 24/91/11 25/92/11 

vt 0.306135 2.29489
vn 0.832978 0.00281334 -0.553299
vt 0.348674 2.29489
vt 0.348789 2.35659
vt 0.30625 2.35659
f 43/93/12 42/94/12 25/95/12 26/96/12 

vt 0.256135 2.29499
vn 0.883115 0.00298267 -0.469148
vt 0.298697 2.29499
vt 0.298795 2.35668
vt 0.256233 2.35668
f 44/97/13 43/98/13 26/99/13 27/100/13 

vt 0.203479 2.29508
vn 0.924702 0.00312313 -0.380678
vt 0.246059 2.29508
vt 0.246138 2.35677
vt 0.203559 2.35677
f 45/101/14 44/102/14 27/103/14 28/104/14 

vt 0.124063 2.29517
vn 0.964179 0.00325646 -0.265232
vt 0.18793 2.29517
vt 0.187986 2.35686
vt 0.124118 2.35686
f 46/105/15 45/106/15 28/107/15 29/108/15 

vt 0.0385411 2.29524
vn 0.992561 0.00335232 -0.121701
vt 0.102428 2.29524
vt 0.102454 2.35693
vt 0.0385664 2.35693
f 47/109/16 46/110/16 29/111/16 30/112/16 

vt -0.0484916 2.29525
vn 0.999697 0.00337642 0.0244024
vt 0.015403 2.29525
vt 0.0153979 2.35695
vt -0.0484967 2.35695
f 48/113/17 47/114/17 30/115/17 31/116/17 

vt -0.135155 2.29522
vn 0.985446 0.00332829 0.169959
vt -0.0712718 2.29522
vt -0.0713072 2.35691
vt -0.13519 2.35691
f 49/117/18 48/118/18 31/119/18 32/120/18 

vt -0.219597 2.29513
vn 0.950084 0.00320886 0.311977
vt -0.15574 2.29513
vt -0.155805 2.35683
vt -0.219662 2.35683
f 50/121/19 49/122/19 32/123/19 33/124/19 

vt -0.299992 2.29501
vn 0.894317 0.00302051 0.447424
vt -0.236174 2.29501
vt -0.236268 2.3567
vt -0.300086 2.3567
f 51/125/20 50/126/20 33/127/20 34/128/20 

vt -0.352027 2.29488
vn 0.832978 0.00281334 0.553299
vt -0.309488 2.29488
vt -0.309603 2.35658
vt -0.352142 2.35658
f 52/129/21 51/130/21 34/131/21 35/132/21 

vt -0.398602 2.29478
vn 0.77488 0.00261712 0.632103
vt -0.356087 2.29478
vt -0.356219 2.35648
vt -0.398734 2.35648
f 53/133/22 52/134/22 35/135/22 36/136/22 

vt -0.462368 2.2947
vn 0.690922 0.00116678 0.722929
vt -0.398525 2.2947
vt -0.398675 2.35639
vt -0.462368 2.35639
f 54/137/23 53/138/23 36/139/23 37/140/23 

vt 0.487417 2.35642
vn -0.530827 -3.86225e-16 -0.84748
vt 0.447761 2.35642
vt 0.447761 2.29473
vt 0.487417 2.29473
f 19/141/24 37/142/24 54/143/24 16/144/24 

vt 0.350422 0.0439235
vn 0 0 -1
vt 0.350422 2.29473
vt -0.149578 2.29473
v 0.149578 0.0439235 0.358762
vt -0.149578 0.0439235
f 17/145/25 16/146/25 55/147/25 56/148/25 

f 4/9/2 3/8/2 56/25/2 55/24/2 

v -0.350422 0.0439235 -0.359075
v -0.33331 0.0439235 -0.3468
v -0.300565 0.0439235 -0.319763
v -0.270612 0.0439235 -0.289628
v -0.243738 0.0439235 -0.256684
v -0.220201 0.0439235 -0.22125
v -0.200233 0.0439235 -0.183663
v -0.184024 0.0439235 -0.144289
v -0.167084 0.0439235 -0.0827088
v -0.159309 0.0439235 -0.0192963
v -0.160868 0.0439235 0.0445793
v -0.171725 0.0439235 0.107533
v -0.191647 0.0439235 0.168202
v -0.220201 0.0439235 0.225276
v -0.243738 0.0439235 0.26071
v -0.270612 0.0439235 0.293653
v -0.316607 0.0439235 0.337712
vt -0.316607 -0.337712
f 2/31/5 57/60/5 58/61/5 59/62/5 60/63/5 61/64/5 62/65/5 63/66/5 64/67/5 65/68/5 66/69/5 67/70/5 68/71/5 69/72/5 70/73/5 71/74/5 72/75/5 73/149/5 17/49/5 56/76/5 3/59/5 

v -0.350422 -0.0185765 -0.359075
vt -0.359075 -0.0185765
vt -0.359075 0.0439235
f 7/7/2 74/150/2 57/151/2 2/8/2 

vt 0.350422 0.359075
vn 0 -1 -0
vt 0.350422 0.367076
vt 0.350422 0.429576
vt -0.253625 0.428973
vt -0.253625 -0.421262
vt 0.350422 -0.421262
vt 0.350422 -0.358762
v -0.316607 -0.0185765 0.337712
vt 0.316607 -0.337712
v -0.270612 -0.0185765 0.293653
vt 0.270612 -0.293653
v -0.243738 -0.0185765 0.26071
vt 0.243738 -0.26071
v -0.220201 -0.0185765 0.225276
vt 0.220201 -0.225276
v -0.191647 -0.0185765 0.168202
vt 0.191647 -0.168202
v -0.171725 -0.0185765 0.107533
vt 0.171725 -0.107533
v -0.160868 -0.0185765 0.0445793
vt 0.160868 -0.0445793
v -0.159309 -0.0185765 -0.0192963
vt 0.159309 0.0192963
v -0.167084 -0.0185765 -0.0827088
vt 0.167084 0.0827088
v -0.184024 -0.0185765 -0.144289
vt 0.184024 0.144289
v -0.200233 -0.0185765 -0.183663
vt 0.200233 0.183663
v -0.220201 -0.0185765 -0.22125
vt 0.220201 0.22125
v -0.243738 -0.0185765 -0.256684
vt 0.243738 0.256684
v -0.270612 -0.0185765 -0.289628
vt 0.270612 0.289628
v -0.300565 -0.0185765 -0.319763
vt 0.300565 0.319763
v -0.33331 -0.0185765 -0.3468
vt 0.33331 0.3468
f 74/152/26 7/153/26 6/154/26 9/155/26 12/156/26 14/157/26 18/158/26 75/159/26 76/160/26 77/161/26 78/162/26 79/163/26 80/164/26 81/165/26 82/166/26 83/167/26 84/168/26 85/169/26 86/170/26 87/171/26 88/172/26 89/173/26 90/174/26 

vt 0.447255 -0.0185765
vn -0.528472 3.7701e-16 -0.848951
vt 0.487087 -0.0185765
vt 0.487087 0.0439235
vt 0.447255 0.0439235
f 75/175/27 18/176/27 17/177/27 73/178/27 

vt 0.398553 -0.0185765
vn -0.691741 0 -0.722146
vt 0.462246 -0.0185765
vt 0.462246 0.0439235
vt 0.398553 0.0439235
f 76/179/28 75/180/28 73/181/28 72/182/28 

vt 0.356087 -0.0185765
vn -0.774883 0 -0.632105
vt 0.398602 -0.0185765
vt 0.398602 0.0439235
vt 0.356087 0.0439235
f 77/183/29 76/184/29 72/185/29 71/186/29 

vt 0.309488 -0.0185765
vn -0.832981 0 -0.553302
vt 0.352027 -0.0185765
vt 0.352027 0.0439235
vt 0.309488 0.0439235
f 78/187/30 77/188/30 71/189/30 70/190/30 

vt 0.236174 -0.0185765
vn -0.894321 0 -0.447426
vt 0.299992 -0.0185765
vt 0.299992 0.0439235
vt 0.236174 0.0439235
f 79/191/31 78/192/31 70/193/31 69/194/31 

vt 0.15574 -0.0185765
vn -0.950089 0 -0.311979
vt 0.219597 -0.0185765
vt 0.219597 0.0439235
vt 0.15574 0.0439235
f 80/195/32 79/196/32 69/197/32 68/198/32 

vt 0.0712718 -0.0185765
vn -0.985451 0 -0.16996
vt 0.135155 -0.0185765
vt 0.135155 0.0439235
vt 0.0712718 0.0439235
f 81/199/33 80/200/33 68/201/33 67/202/33 

vt -0.015403 -0.0185765
vn -0.999702 0 -0.0244025
vt 0.0484916 -0.0185765
vt 0.0484916 0.0439235
vt -0.015403 0.0439235
f 82/203/34 81/204/34 67/205/34 66/206/34 

vt -0.102428 -0.0185765
vn -0.992567 0 0.121702
vt -0.0385411 -0.0185765
vt -0.0385411 0.0439235
vt -0.102428 0.0439235
f 83/207/35 82/208/35 66/209/35 65/210/35 

vt -0.18793 -0.0185765
vn -0.964184 0 0.265233
vt -0.124063 -0.0185765
vt -0.124063 0.0439235
vt -0.18793 0.0439235
f 84/211/36 83/212/36 65/213/36 64/214/36 

vt -0.246059 -0.0185765
vn -0.924707 0 0.38068
vt -0.203479 -0.0185765
vt -0.203479 0.0439235
vt -0.246059 0.0439235
f 85/215/37 84/216/37 64/217/37 63/218/37 

vt -0.298697 -0.0185765
vn -0.883119 0 0.46915
vt -0.256135 -0.0185765
vt -0.256135 0.0439235
vt -0.298697 0.0439235
f 86/219/38 85/220/38 63/221/38 62/222/38 

vt -0.348674 -0.0185765
vn -0.832981 0 0.553302
vt -0.306135 -0.0185765
vt -0.306135 0.0439235
vt -0.348674 0.0439235
f 87/223/39 86/224/39 62/225/39 61/226/39 

vt -0.395483 -0.0185765
vn -0.774883 0 0.632105
vt -0.352968 -0.0185765
vt -0.352968 0.0439235
vt -0.395483 0.0439235
f 88/227/40 87/228/40 61/229/40 60/230/40 

vt -0.438677 -0.0185765
vn -0.709243 0 0.704964
vt -0.396188 -0.0185765
vt -0.396188 0.0439235
vt -0.438677 0.0439235
f 89/231/41 88/232/41 60/233/41 59/234/41 

vt -0.477826 -0.0185765
vn -0.636693 0 0.771117
vt -0.435362 -0.0185765
vt -0.435362 0.0439235
vt -0.477826 0.0439235
f 90/235/42 89/236/42 59/237/42 58/238/42 

vt -0.494034 -0.0185765
vn -0.582861 -3.60854e-16 0.812572
vt -0.472975 -0.0185765
vt -0.472975 0.0439235
vt -0.494034 0.0439235
f 74/239/43 90/240/43 58/241/43 57/242/43 

g Mesh2 Model

v -0.62877 0.175498 1.71896
vt -0.62877 -1.71896
v -0.900294 0.175498 0.922137
vt -0.900294 -0.922137
v -0.900294 0.175498 1.54714
vt -0.900294 -1.54714
f 91/243/5 92/244/5 93/245/5

v -0.73592 0.175498 1.2775
vt -0.73592 -1.2775
f 92/244/5 91/243/5 94/246/5

v -0.667844 0.175498 1.45505
vt -0.667844 -1.45505
f 94/246/5 91/243/5 95/247/5

v -0.582775 0.175498 1.54948
vt -0.582775 -1.54948
f 95/247/5 91/243/5 96/248/5

v -0.493491 0.175498 1.60636
vt -0.493491 -1.60636
f 96/248/5 91/243/5 97/249/5

v -0.351245 0.175498 1.64596
vt -0.351245 -1.64596
f 97/249/5 91/243/5 98/250/5

v 0.59841 0.175498 1.71896
vt 0.59841 -1.71896
f 98/250/5 91/243/5 99/251/5

vt 0.59841 0.175498
vt -0.62877 0.175498
v -0.62877 -0.0120017 1.71896
vt -0.62877 -0.0120017
v 0.59841 -0.0120017 1.71896
vt 0.59841 -0.0120017
f 99/252/1 91/253/1 100/254/1 101/255/1 

vt 0.387868 0.175498
vn -0.534736 0 0.845019
vt 0.0665456 0.175498
v -0.900294 -0.0120017 1.54714
vt 0.0665456 -0.0120017
vt 0.387868 -0.0120017
f 91/256/44 93/257/44 102/258/44 100/259/44 

vt 1.54714 0.175498
vt 0.922137 0.175498
v -0.900294 -0.0120017 0.922137
vt 0.922137 -0.0120017
vt 1.54714 -0.0120017
f 93/260/2 92/261/2 103/262/2 102/263/2 

vt 1.2733 0.175498
vn -0.599121 0 -0.800658
v -0.62877 0.175498 0.71896
vt 0.934174 0.175498
v -0.62877 -0.0120017 0.71896
vt 0.934174 -0.0120017
vt 1.2733 -0.0120017
f 92/264/45 104/265/45 105/266/45 103/267/45 

v -0.727656 0.175498 1.10826
vt -0.727656 -1.10826
vt -0.62877 -0.71896
f 92/244/5 106/268/5 104/269/5

f 106/268/5 92/244/5 94/246/5

vt -1.14243 0.175498
vn 0.99881 0 0.0487721
vt -1.31187 0.175498
v -0.73592 -0.0120017 1.2775
vt -1.31187 -0.0120017
v -0.727656 -0.0120017 1.10826
vt -1.14243 -0.0120017
f 106/270/46 94/271/46 107/272/46 108/273/46 

vt -0.929363 0.175498
vn 0.93372 0 -0.358004
vt -1.11952 0.175498
v -0.667844 -0.0120017 1.45505
vt -1.11952 -0.0120017
vt -0.929363 -0.0120017
f 94/274/47 95/275/47 109/276/47 107/277/47 

vt -0.634041 0.175498
vn 0.742965 0 -0.669331
vt -0.761138 0.175498
v -0.582775 -0.0120017 1.54948
vt -0.761138 -0.0120017
vt -0.634041 -0.0120017
f 95/278/48 96/279/48 110/280/48 109/281/48 

vt -0.341052 0.175498
vn 0.537313 0 -0.843383
vt -0.446916 0.175498
v -0.493491 -0.0120017 1.60636
vt -0.446916 -0.0120017
vt -0.341052 -0.0120017
f 96/282/49 97/283/49 111/284/49 110/285/49 

vt 0.0445531 0.175498
vn 0.268218 0 -0.963358
vt -0.103103 0.175498
v -0.351245 -0.0120017 1.64596
vt -0.103103 -0.0120017
vt 0.0445531 -0.0120017
f 97/286/50 98/287/50 112/288/50 111/289/50 

vt 0.43365 0.175498
vn -0.0503355 0 -0.998732
v -0.0681368 0.175498 1.63169
vt 0.150183 0.175498
v -0.0681368 -0.0120017 1.63169
vt 0.150183 -0.0120017
vt 0.43365 -0.0120017
f 98/290/51 113/291/51 114/292/51 112/293/51 

vt -0.0681368 -1.63169
f 98/250/5 99/251/5 113/294/5

v 0.53591 0.175498 1.63169
vt 0.53591 -1.63169
f 113/294/5 99/251/5 115/295/5

v 0.53591 0.175498 0.78146
vt 0.53591 -0.78146
f 115/295/5 99/251/5 116/296/5

v 0.59841 0.175498 0.71896
vt 0.59841 -0.71896
f 117/297/5 116/296/5 99/251/5

v -0.0681368 0.175498 0.780856
vt -0.0681368 -0.780856
f 117/297/5 118/298/5 116/296/5

v -0.224725 0.175498 0.787846
vt -0.224725 -0.787846
f 117/297/5 119/299/5 118/298/5

v -0.372272 0.175498 0.784201
vt -0.372272 -0.784201
f 117/297/5 120/300/5 119/299/5

f 104/269/5 120/300/5 117/297/5

v -0.454355 0.175498 0.804889
vt -0.454355 -0.804889
f 104/269/5 121/301/5 120/300/5

v -0.62877 0.175498 0.922137
vt -0.62877 -0.922137
f 104/269/5 122/302/5 121/301/5

f 104/269/5 106/268/5 122/302/5

vt -1.10935 0.175498
vn 0.883097 0 0.46919
vt -1.32011 0.175498
vt -1.32011 -0.0120017
v -0.62877 -0.0120017 0.922137
vt -1.10935 -0.0120017
f 122/303/52 106/304/52 108/305/52 123/306/52 

vt 0.727656 -1.10826
vt 0.62877 -0.71896
vt 0.62877 -0.922137
f 108/307/26 105/308/26 123/309/26

vt 0.900294 -1.54714
f 102/310/26 105/308/26 108/307/26

vt 0.900294 -0.922137
f 105/308/26 102/310/26 103/311/26

vt 0.73592 -1.2775
f 102/310/26 108/307/26 107/312/26

vt 0.62877 -1.71896
f 107/312/26 100/313/26 102/310/26

vt 0.667844 -1.45505
f 100/313/26 107/312/26 109/314/26

vt 0.582775 -1.54948
f 100/313/26 109/314/26 110/315/26

vt 0.493491 -1.60636
f 100/313/26 110/315/26 111/316/26

vt 0.351245 -1.64596
f 100/313/26 111/316/26 112/317/26

vt -0.59841 -1.71896
f 100/313/26 112/317/26 101/318/26

vt 0.0681368 -1.63169
f 101/318/26 112/317/26 114/319/26

v 0.53591 -0.0120017 1.63169
vt -0.53591 -1.63169
f 101/318/26 114/319/26 124/320/26

vt 0.0681368 0.175498
vt -0.53591 0.175498
vt -0.53591 -0.0120017
vt 0.0681368 -0.0120017
f 113/321/25 115/322/25 124/323/25 114/324/25 

vt 1.63169 0.175498
vt 0.78146 0.175498
v 0.53591 -0.0120017 0.78146
vt 0.78146 -0.0120017
vt 1.63169 -0.0120017
f 115/325/2 116/326/2 125/327/2 124/328/2 

vt 0.536691 0.175498
vn -0.000999377 0 1
vt -0.0673564 0.175498
v -0.0681368 -0.0120017 0.780856
vt -0.0673564 -0.0120017
vt 0.536691 -0.0120017
f 116/329/53 118/330/53 126/331/53 125/332/53 

vt -0.102889 0.175498
vn 0.0445927 0 0.999005
vt -0.259634 0.175498
v -0.224725 -0.0120017 0.787846
vt -0.259634 -0.0120017
vt -0.102889 -0.0120017
f 118/333/54 119/334/54 127/335/54 126/336/54 

vt -0.205202 0.175498
vn -0.0246937 0 0.999695
vt -0.352794 0.175498
v -0.372272 -0.0120017 0.784201
vt -0.352794 -0.0120017
vt -0.205202 -0.0120017
f 119/337/55 120/338/55 128/339/55 127/340/55 

vt -0.552633 0.175498
vn 0.244388 0 0.969678
vt -0.637282 0.175498
v -0.454355 -0.0120017 0.804889
vt -0.637282 -0.0120017
vt -0.552633 -0.0120017
f 120/341/56 121/342/56 129/343/56 128/344/56 

vt -0.826118 0.175498
vn 0.557896 0 0.829911
vt -1.03628 0.175498
vt -1.03628 -0.0120017
vt -0.826118 -0.0120017
f 121/345/57 122/346/57 123/347/57 129/348/57 

vt 0.454355 -0.804889
f 123/309/26 105/308/26 129/349/26

vt 0.372272 -0.784201
f 129/349/26 105/308/26 128/350/26

v 0.59841 -0.0120017 0.71896
vt -0.59841 -0.71896
f 128/350/26 105/308/26 130/351/26

vt 0.62877 0.175498
vt -0.59841 0.175498
vt -0.59841 -0.0120017
vt 0.62877 -0.0120017
f 104/352/25 117/353/25 130/354/25 105/355/25 

vt -0.71896 0.175498
vt -1.71896 0.175498
vt -1.71896 -0.0120017
vt -0.71896 -0.0120017
f 117/356/4 99/357/4 101/358/4 130/359/4 

f 101/318/26 124/320/26 130/351/26

vt -0.53591 -0.78146
f 125/360/26 130/351/26 124/320/26

vt 0.0681368 -0.780856
f 126/361/26 130/351/26 125/360/26

vt 0.224725 -0.787846
f 127/362/26 130/351/26 126/361/26

f 128/350/26 130/351/26 127/362/26

